<?xml version="1.0" encoding="UTF-8"?>
<svg width="200px" height="95px" viewBox="0 0 200 95" version="1.1" xmlns="http://www.w3.org/2000/svg" xmlns:xlink="http://www.w3.org/1999/xlink">
    <!-- Generator: Sketch 44.1 (41455) - http://www.bohemiancoding.com/sketch -->
    <title>Group</title>
    <desc>Created with Sketch.</desc>
    <defs></defs>
    <g id="Page-1" stroke="none" stroke-width="1" fill="none" fill-rule="evenodd">
        <g id="Group">
            <path d="M0.32,93 C2.1600092,88.99998 3.979991,84.7200228 5.78,80.16 C6.6600044,77.959989 7.699994,75.1800168 8.9,71.82 L23.06,32.16 C19.6999832,27.2799756 17.2000082,21.7000314 15.56,15.42 C14.8399964,12.7799868 14.3100017,10.2500121 13.97,7.83 C13.6299983,5.4099879 13.4799998,3.3200088 13.52,1.56 L23.6,0.42 L23.54,1.38 L23.6,3.12 C23.6800004,6.2400156 24.319994,10.2799752 25.52,15.24 C26.920007,20.9600286 29.2599836,26.4399738 32.54,31.68 C34.3000088,34.5600144 36.4599872,37.2399876 39.02,39.72 C42.2600162,43.0000164 45.0499883,45.9499869 47.39,48.57 C49.7300117,51.1900131 51.8599904,53.9399856 53.78,56.82 C58.7000246,64.1400366 61.2999986,71.3599644 61.58,78.48 C61.6200002,79.080003 61.64,79.979994 61.64,81.18 C61.64,85.4600214 61.240004,89.399982 60.44,93 L49.1,93 C49.9400042,91.3199916 50.4999986,88.8400164 50.78,85.56 C50.9000006,84.2799936 50.96,83.0600058 50.96,81.9 C50.96,80.7399942 50.8800008,79.360008 50.72,77.76 C50.2799978,72.6399744 48.360017,67.2000288 44.96,61.44 C42.4799876,57.2799792 39.7200152,53.500017 36.68,50.1 L27.14,78.54 C26.3799962,80.7000108 25.4600054,84.0199776 24.38,88.5 L23.42,93 L0.32,93 Z" id="Path" fill="#D13A82"></path>
            <path d="M127.64,41.58 C127.359999,42.4200042 127.020002,43.6199922 126.62,45.18 C126.179998,46.7000076 125.640003,48.7999866 125,51.48 C124.359997,53.8400118 123.720003,56.4399858 123.08,59.28 L122.63,61.08 C122.489999,61.6400028 122.360001,62.1399978 122.24,62.58 L119.9,72 L116.78,85.38 C116.539999,86.3400048 116.42,87.1599966 116.42,87.84 C116.42,88.8000048 116.649998,89.5299975 117.11,90.03 C117.570002,90.5300025 118.259995,90.8599992 119.18,91.02 C119.340001,91.0600002 119.599998,91.08 119.96,91.08 C120.480003,91.08 121.079997,90.980001 121.76,90.78 L124.64,89.88 L124.82,92.28 C123.979996,92.7200022 122.990006,93.1199982 121.85,93.48 C120.709994,93.8400018 119.660005,94.02 118.7,94.02 C117.779995,94.02 116.930004,93.8400018 116.15,93.48 C115.369996,93.1199982 114.740002,92.6200032 114.26,91.98 C113.539996,91.1399958 113.18,90.120006 113.18,88.92 C113.18,88.4799978 113.239999,88.060002 113.36,87.66 L115.28,80.1 L115.34,79.8 C114.419995,81.600009 113.120008,83.3799912 111.44,85.14 C109.759992,86.9000088 107.840011,88.479993 105.68,89.88 C103.439989,91.3600074 101.070012,92.5299957 98.57,93.39 C96.0699875,94.2500043 93.620012,94.68 91.22,94.68 C86.5399766,94.68 83.0800112,93.280014 80.84,90.48 C78.9999908,88.1999886 78.08,85.0000206 78.08,80.88 C78.08,78.079986 78.4199966,75.3600132 79.1,72.72 L82.34,59.16 L84.32,50.64 C85.320005,46.2799782 85.9599986,43.3200078 86.24,41.76 L89.48,41.76 L88.64,44.64 L87.26,49.86 C86.459996,52.8200148 85.7000036,55.8799842 84.98,59.04 L81.92,71.76 C81.119996,75.2000172 80.72,78.1599876 80.72,80.64 C80.72,82.9200114 81.0799964,84.8799918 81.8,86.52 C83.400008,90.0400176 86.9599724,91.8 92.48,91.8 C96.0000176,91.8 99.6999806,90.6200118 103.58,88.26 C106.940017,86.2199898 109.979986,83.4400176 112.7,79.92 C115.340013,76.4799828 117.019996,73.2400152 117.74,70.2 L119.6,62.58 C119.760001,61.979997 120.399994,59.3000238 121.52,54.54 L122.24,51.48 L123.62,45.3 C124.020002,43.5399912 124.24,42.4200024 124.28,41.94 L127.64,41.58 Z M148.4,42.24 L151.76,41.88 C151.439998,42.5600034 151.080002,43.7599914 150.68,45.48 C150.279998,47.0000076 149.740003,49.0999866 149.06,51.78 C148.379997,54.380013 147.480006,58.079976 146.36,62.88 L143,76.74 C142.92,77.0600016 142.88,77.2799994 142.88,77.4 L141.02,85.38 C140.819999,86.180004 140.72,86.979996 140.72,87.78 C140.72,88.780005 140.949998,89.5299975 141.41,90.03 C141.870002,90.5300025 142.559995,90.8599992 143.48,91.02 C143.640001,91.0600002 143.899998,91.08 144.26,91.08 C144.780003,91.08 145.379997,90.980001 146.06,90.78 L148.94,89.88 L149.12,92.28 C148.279996,92.7200022 147.290006,93.1199982 146.15,93.48 C145.009994,93.8400018 143.960005,94.02 143,94.02 C142.079995,94.02 141.250004,93.7900023 140.51,93.33 C139.769996,92.8699977 139.160002,92.2600038 138.68,91.5 C137.999997,90.4599948 137.66,89.3200062 137.66,88.08 C137.66,87.5599974 137.719999,87.100002 137.84,86.7 L140.48,76.08 L143.72,62.88 C143.880001,62.279997 144.519994,59.6000238 145.64,54.84 L146.36,51.78 L147.74,45.6 C148.140002,43.8399912 148.36,42.7200024 148.4,42.24 Z M169.34,42.84 C170.220004,42.639999 171.399993,42.4600008 172.88,42.3 L175.88,42.12 L176.96,37.5 C177.920005,33.4599798 178.899995,30.0800136 179.9,27.36 C180.340002,25.9999932 180.819997,24.720006 181.34,23.52 L183.32,23.52 C182.879998,25.0000074 182.480002,26.4999924 182.12,28.02 L178.52,42.12 L199.46,42.12 L197.9,45.12 C197.539998,44.9599992 196.660007,44.8600002 195.26,44.82 C192.379986,44.6999994 188.620023,44.64 183.98,44.64 L177.92,44.64 L176,52.5 C173.639988,61.7400462 171.900006,69.2799708 170.78,75.12 C170.219997,78.0400146 169.94,80.4799902 169.94,82.44 C169.94,86.040018 170.819991,88.5799926 172.58,90.06 C173.980007,91.3000062 176.259984,91.92 179.42,91.92 C182.020013,91.92 184.879984,91.320006 188,90.12 C189.360007,89.5999974 190.679994,89.0000034 191.96,88.32 L191.96,91.32 C189.559988,92.5600062 186.820015,93.4999968 183.74,94.14 C182.139992,94.5000018 180.440009,94.68 178.64,94.68 C175.239983,94.68 172.640009,94.080006 170.84,92.88 C169.039991,91.679994 167.900002,89.880012 167.42,87.48 C167.219999,86.5599954 167.12,85.3600074 167.12,83.88 C167.12,81.9199902 167.329998,79.6900125 167.75,77.19 C168.170002,74.6899875 168.799996,71.6600178 169.64,68.1 L175.22,44.64 L168.86,44.64 L169.34,42.84 Z" id="λuit" fill="#666666"></path>
            <circle id="Oval" fill="#D13A82" cx="154" cy="24" r="3"></circle>
        </g>
    </g>
</svg>